<svg xmlns="http://www.w3.org/2000/svg" width="96" height="139.222" viewBox="0 0 96 139.222"><defs><style>.a{fill:#531e14;font-size:12px;font-family:Oxygen-Regular, Oxygen;}.b{fill:#94070a;}.b,.d{fill-rule:evenodd;}.c{fill:#ffe293;}</style></defs><g transform="translate(-205 -4879.778)"><text class="a" transform="translate(250 4996)"><tspan x="-39.671" y="0">ISO CERTIFIED</tspan><tspan x="-44.32" y="20">ISO 22000:2005</tspan></text><g transform="translate(206 4879.778)"><path class="b" d="M0,84.262C10.07,67.735,38.158,12.074,39.408,8.717c1.233-3.357.24-4.282.24-4.282L37.1,1.524,48.69,0C54.924,14.849,70,44.888,80.083,63.727c5.018,9.4,9.128,15.773,9.608,16.561C91.112,82.669,95,82.464,95,82.464s-.137.771-.617,2.483c-3.134-1.319-14.112-.274-14.112-.274l-36.325-72.5L7.416,84.656Z"/><rect class="c" width="79.895" height="7.107" transform="translate(5.652 64.584)"/><path class="d" d="M27.4,143.342l.086-.445.086-.514.1-.565.1-.617.1-.651.1-.651.1-.685.12-.685.1-.685.1-.651.086-.617.086-.6.086-.548.069-.5.051-.428.051-.343.051-.257.017-.154.017-.051.308.051.308.137.291.223.291.257.24.325.24.343.188.343.137.343.1.325.034.291v.274l.017.274.034.308.069.308.086.308.171.325.24.343.325.343.411.36.514.377.291.137.394.154.48.154.582.154.668.137.736.154.788.154.856.154.891.137.908.137.959.137.959.12.959.137.976.12.942.1.925.1.891.086.856.086.8.069.736.051.668.051.6.051.514.034.411.034h.291l.343-.017.377-.034.411-.069.411-.1.428-.137.428-.171.428-.24.428-.257.428-.343.411-.394.394-.428.377-.514.325-.582.308-.651.257-.736.223-.822.154-.908.12-.993.034-.873-.051-.8-.137-.754-.206-.7-.274-.651-.325-.617-.36-.548-.394-.514-.428-.462-.428-.428-.445-.377-.428-.343-.428-.291-.428-.257-.394-.223-.343-.171-.325-.137-.24-.12-.206-.069.137-.257.154-.325.188-.36.206-.428.223-.445.24-.462.24-.48.24-.462.24-.462.223-.445.206-.411.188-.343.137-.308.137-.24.069-.154.051-.068.343.154.428.206.5.24.548.291.617.343.617.394.668.428.668.48.668.531.651.548.617.617.6.651.531.685.48.719.411.771.343.8.223.839.154,1.028.069.976-.017.925-.086.873-.137.8-.206.771-.24.7-.291.668-.291.617-.325.565-.325.514-.325.462-.308.428-.274.36-.24.325-.206.274-.428.548-.48.548-.548.548-.582.531-.617.514-.617.48-.617.445-.582.411-.548.343-.48.274-.428.223-.565.24-.685.257-.771.257-.873.274-.959.257-1.062.257-1.13.24-1.233.206-.462.051-.565.034h-.634l-.719-.017-.771-.034-.822-.051-.873-.068-.908-.069-.925-.1-.942-.1-.959-.1-.976-.12-.942-.137-.925-.12-.908-.12-.856-.137-.822-.12-.771-.1-.719-.1-.634-.1-.548-.086-.48-.051-.36-.051-.257-.051-.5-.1-.394-.137L28,144.524l-.24-.154-.171-.188-.1-.223-.051-.223-.017-.24Zm1.2-29.115.137-.8.206-.8.291-.822.377-.822.48-.822.582-.839.685-.839.8-.839,1.062-.993,1.079-.873L35.364,105l1.079-.685,1.045-.582,1.028-.514,1.01-.428.976-.36.942-.291.891-.24.856-.171.8-.137.736-.1.668-.051.617-.034h.976l.36.017.257.017.154.034h.051l1.387.034,1.267.034,1.182.051,1.062.069.976.086.891.086.788.1.719.12.634.12.565.137.48.137.428.137.36.137.308.137.24.137.257.188.188.24.1.24.051.24.017.188-.017.137v.051l-.069.223-.069.291-.086.36-.086.411-.086.411-.069.411-.068.36-.051.308-.034.24-.051.531-.034.514-.034.5-.034.462-.017.428-.034.36v.308l-.017.24v.206l-.274-.017-.24-.1-.223-.188-.188-.24-.137-.274-.137-.308-.12-.291-.068-.274-.069-.24-.051-.188-.1-.291-.137-.291-.188-.24-.24-.206-.325-.12-.48-.12-.548-.1-.582-.12-.634-.1-.668-.1-.685-.086-.7-.1-.719-.086-.7-.086-.7-.069-.651-.068-.634-.069-.6-.154-.531-.051-.5-.051-.411-.034-.343-.034-.24-.034-.154-.017h-.1l-.137-.017-.223-.017-.308-.034-.36-.017h-.908l-.514.017-.565.017-.6.051-.617.051-.634.1-.634.12-.634.154-.617.188-.617.24-.6.257-.565.325-.514.36-.48.411-.428.462-.36.531-.308.6-.223.651-.137.7-.034.942.069.891.137.8.223.736.291.685.36.634.428.565.462.531.514.462.565.428.6.377.617.343.651.291.668.24.668.223.7.188.685.137.668.137.668.1.634.069.617.051.6.034.548.034h.514l.462.017.411-.017h.343l.274-.017.206-.017.137-.017h.051l-2.894,5.669-1.233.051-1.13.017-1.045-.017-.959-.051-.891-.069-.8-.086-.719-.1-.668-.137-.617-.137-.548-.137-.531-.154-.48-.171-.445-.171-.428-.188-.411-.171-.394-.188-.377-.171-.394-.171-.394-.154-.308-.137-.325-.206-.343-.24-.36-.325-.36-.343-.377-.411-.36-.445-.343-.5-.343-.514-.325-.565-.291-.617-.24-.634-.24-.668-.171-.685-.12-.736-.069-.736-.017-.754ZM78.317,134.2l-.051-.959.017-.993.086-1.028.188-1.045.274-1.062.308-.822.394-.736.445-.668.514-.6.565-.531.6-.445.634-.411.651-.343.668-.291.668-.24.651-.206.668-.154.617-.12.617-.1.565-.051.514-.051.462-.034.411-.017H89.5l.206.017.325.017.411.051.514.051.582.069.634.068.7.069.754.086.771.069.8.086.822.086.8.086.8.086.771.069.736.069.685.051.651.069.548.086.445.12.377.12.291.154.24.154.137.171.1.188.051.188v.188l-.034.206-.051.206-.086.206-.1.206-.12.188-.154.343-.137.445-.12.514-.1.6-.086.617-.051.651-.051.651-.086.719-.034.6v.548l-.051.5-.137.428-.188.394-.24.343-.24.291-.24.24-.24.206-.188.137-.137.086-.051.034.051-.188.034-.257v-.308l-.051-.36-.086-.428-.12-.5-.171-.548-.24-.617-.308-.685-.36-.771L98.2,130l-.377-.394-.462-.343-.531-.325-.582-.274-.634-.24-.668-.206-.685-.171-.685-.137-.685-.12-.651-.086-.617-.069-.582-.051-.514-.034-.445-.034-.343-.017h-.462l-.291.017-.343.017-.411.034-.462.051-.5.068-.531.086-.565.137-.565.137-.6.171-.582.223-.582.257-.548.308-.531.343-.5.411-.445.428-.411.514-.343.548-.257.617-.188.685-.1.754.069,1.079.154.993.24.942.308.873.377.8.428.754.48.7.531.634.548.6.6.531.6.5.617.428.617.394.617.36.6.308.582.274.531.24.514.188.462.171.428.137.36.12.291.068.223.051.137.034.051.017.034.051.069.12.1.223.137.257.137.308.154.325.154.325.137.308.137.257.1.206-1.267-.308-1.147-.308-1.045-.325-.942-.308-.839-.325L86.058,145l-.685-.325-.6-.308-.531-.325-.48-.308-.428-.291-.377-.308-.343-.291-.291-.274-.274-.274-.24-.257-.24-.257-.24-.291-.291-.36-.308-.428-.325-.514-.343-.565-.325-.634-.325-.685-.308-.736-.257-.8-.24-.839-.188-.891Zm9.214-28.19h-.051l1.25-2.175h.223l.274.017h.36l.445.017.531.017h.617l.7.017.754.017.8.017H94.3l.925.017h.942l.993.017h4.2l1.1-.017,1.079-.017,1.079-.017,1.045-.017,1.045-.034,1.01-.034.976-.034.942-.034.908-.034.839-.051.8-.051.736-.069.651-.069.6-.086.514-.086.428-.1.343-.12-.086.685-.1.565-.086.445-.069.343-.069.24-.051.154-.017.034-.034.034-.137.051-.24.1-.291.12-.36.137-.411.154-.445.137-.48.1-.5.086-.514.034h-.5l-.017.171v.291l-.017.377v.48l-.017.548v.634l-.017.719-.017.788v.839l-.017.908-.017.942v.993l-.017,1.028-.017,1.062v1.079l-.017,1.1-.017,1.113V120.7l-.017,1.113-.017,1.1v1.1l-.017,1.079v1.062l-.017,1.028-.017.993v.942l-.017.891v1.61l-.017.719v1.2l-.017.462v.925l-.034.137-.051.24-.051.325-.086.411-.137.462-.154.531-.188.565-.24.617-.291.651-.325.668-.394.7-.428.7-.514.7-.565.7-.634.685-.7.668-.788.617-.873.582-.942.548-1.028.48-.086.034-.154.051-.154.051-.086.034-.171-.325-.171-.325-.188-.343-.154-.325-.154-.291-.137-.24-.086-.171-.051-.1.1-.051.086-.086.051-.034.051-.034.1-.1.171-.154.223-.24.24-.308.291-.377.308-.445.308-.514.308-.617.291-.668.257-.771.24-.839.171-.925.137-1.01.051-1.1.017-.531v-2.911l-.017-.891v-.908l-.017-.976v-1.01l-.017-1.045-.017-1.062-.017-1.079-.017-1.113-.034-1.1-.017-1.113-.017-1.1-.017-1.1-.034-1.079-.017-1.079-.017-1.028-.034-.993-.017-.959-.017-.925-.017-.873-.017-.8-.017-.754-.017-.685-.017-.617-.017-.531-.017-.445v-.36l-.017-.257v-.36l-.034-.137-.034-.137-.069-.171-.12-.171-.137-.188-.223-.171-.274-.154-.343-.137-.428-.1-.531-.034-.325-.017-.411-.017-.462-.034-.548-.017-.6-.034-.651-.034-.7-.034-.719-.034-.754-.034-.771-.034-.788-.034-.788-.051-.788-.034-.754-.034-.736-.034-.7-.034-.668-.034-.617-.034-.565-.017-.5-.034-.428-.017-.343-.017H87.6Z" transform="translate(-22.707 -84.034)"/><path class="b" d="M44.351,413.2l-.051.068.069.1.069.171.1.171.069.171.086.171.086.171h4.847l.274-.171.257-.171.257-.171.257-.171.274-.171.154-.1.034-.068Z" transform="translate(-36.713 -342.434)"/><path class="b" d="M66.934,366.659l-.034.069h6.542l.034-.069-.051-.1-.086-.171-.086-.171-.086-.171-.086-.171L73,365.7H68.424l-.274.171-.274.171-.257.171-.257.171-.274.171Z" transform="translate(-55.442 -303.069)"/><path class="b" d="M407.051,366.556l-.051.086.034.086h10.31l-.034-.069-.154-.1-.274-.171-.274-.171-.291-.171-.257-.171-.274-.171H407.5l-.086.171-.1.171-.086.171-.086.171Z" transform="translate(-337.296 -303.069)"/><path class="b" d="M438.687,413.2H428l.051.068.137.1.274.171.257.171.257.171.24.171.274.171h8.769l.086-.171.086-.171.1-.171.069-.171.086-.171.034-.086Z" transform="translate(-354.699 -342.434)"/><path class="d" d="M73.114,355.3l-.514.976.394.034.925.12.942.137.976.1.959.1.942.1.925.1h.069l.5-.976-1.387-.154-.942-.1-.959-.1-.959-.1-.942-.12Z" transform="translate(-60.166 -294.45)"/><path class="d" d="M73.114,355.3l-.514.976.394.034.925.12.942.137.976.1.959.1.942.1.925.1h.069l.5-.976-1.387-.154-.942-.1-.959-.1-.959-.1-.942-.12Z" transform="translate(-60.166 -294.45)"/><path class="d" d="M77.938,331.62,75.9,335.61l1.113.171.925.137.976.137.959.12.959.12.993.12h.034l2.107-4.127-.428-.034-.959-.12L81.62,332l-.959-.1-.959-.137-.925-.137-.771-.12Z" transform="translate(-62.901 -274.726)"/><path class="d" d="M77.938,331.62,75.9,335.61l1.113.171.925.137.976.137.959.12.959.12.993.12h.034l2.107-4.127-.428-.034-.959-.12L81.62,332l-.959-.1-.959-.137-.925-.137-.771-.12Z" transform="translate(-62.901 -274.726)"/><path class="d" d="M455.769,349.5l-.069.051.274.514.171.291.154.343.137.24.274.514.12.223.086-.017.034-.12.086-.188.1-.206.068-.206.086-.223.086-.188-.034-.086-.137-.24-.1-.171-.188-.377-.188-.034-.223-.017-.188-.017-.223-.017-.206-.034Z" transform="translate(-377.655 -289.643)"/><path class="d" d="M393.52,353.782l-.12.137.017.051.069.1.068.171v.017l.325.24.325.24.291.24.291.223.325.24.171.137.086.017-.086-.188-.137-.274-.154-.291-.154-.325-.154-.325-.154-.308-.12-.257-.1-.223-.086-.12-.017-.068-.051-.017h-.068l-.051.069-.12.137-.154.12-.1.137Z" transform="translate(-326.025 -292.71)"/><path class="d" d="M350.217,249.5l-.017.017.462.925.137-.1.565-.291.582-.274.565-.206.6-.188.565-.137.565-.137.548-.086.5-.069.462-.051.394-.034.36-.017.291-.017h.462l.343.017.445.034.514.017.582.069.617.069.1.017-.565-1.113h-.051l-.6-.069-.514-.017-.462-.034-.394-.017h-.514l-.308.017-.394.017-.428.034-.462.069-.548.069-.582.086-.6.137-.6.171-.634.188-.634.223-.668.291-.651.36Z" transform="translate(-290.223 -205.361)"/><path class="d" d="M342.691,231.387l-.291.223.462.925.411-.291.017-.017.531-.343.291-.137.291-.171.6-.257.617-.223.617-.188.6-.137.582-.1.565-.1.548-.051.48-.034.428-.034.377-.017h.668l.188.017.308.017.736.034-.291-.582-.223-.48h-.154l-.325-.017-.188-.017H349.8l-.411.017-.462.017-.5.051-.565.069-.617.086-.617.12-.668.171-.668.188-.668.24-.668.291-.651.325Z" transform="translate(-283.759 -190.112)"/><path class="d" d="M167.737,220.212l-.137.257.051.017.137-.051.24-.051.223-.069.223-.068.206-.069.24-.068.291-.565.223-.462.206-.445.257-.48.24-.462.24-.462.223-.445.188-.394.188-.36v-.017l-.086-.206-.1-.223-.051-.206-.086-.223-.086-.188-.068-.137-.051-.034-.154.325-.086.137-.154.308-.188.343-.206.411-.206.445-.24.462-.24.462-.24.48-.24.462-.206.445-.206.428-.188.36Z" transform="translate(-138.896 -178.013)"/><path class="d" d="M129.877,214.793l-.377.719.12.154.12.154.1.137.12.154.1.154.086.086h.086l.223-.445,2.672-5.206h-.1l-.137.1-.291.171-.274.171-.274.137-.274.188-.274.154-.771,1.49Z" transform="translate(-107.321 -174.615)"/><path class="d" d="M189.24,111.333l-.24.514.24.051.548.1.48.1.343.12.24.206.188.223.137.308.1.274.034.188.069.257.086.274.1.291.137.308.154.274.188.24.206.188.257.1.274.017v-.206l.017-.223v-.308l.017-.36.017-.428.034-.462.034-.5.034-.514.051-.514.017-.24.069-.308.069-.36.068-.394.086-.411.086-.411.086-.36.086-.291.069-.223v-.034l.017-.154-.017-.188-.051-.223-.1-.257-.188-.223-.274-.188-.24-.137-.308-.137-.36-.12-.445-.137L191.4,107l-.154.325-.308.617-1.456,2.946Z" transform="translate(-156.631 -88.675)"/><path class="d" d="M189.24,111.333l-.24.514.24.051.548.1.48.1.343.12.24.206.188.223.137.308.1.274.034.188.069.257.086.274.1.291.137.308.154.274.188.24.206.188.257.1.274.017v-.206l.017-.223v-.308l.017-.36.017-.428.034-.462.034-.5.034-.514.051-.514.017-.24.069-.308.069-.36.068-.394.086-.411.086-.411.086-.36.086-.291.069-.223v-.034l.017-.154-.017-.188-.051-.223-.1-.257-.188-.223-.274-.188-.24-.137-.308-.137-.36-.12-.445-.137L191.4,107l-.154.325-.308.617-1.456,2.946Z" transform="translate(-156.631 -88.675)"/><path class="d" d="M39.217,380.068h3.716v.771H41.495v3.374h-.856v-3.374H39.2v-.771Zm4.11,0h.856v1.7h2.055v-1.7H47.1v4.145h-.856v-1.678H44.184v1.678h-.856Zm4.521,0h2.62v.771H48.705v.908h1.7v.754h-1.7v.942h1.815v.771H47.849Zm4.8,1.524-.086-.411.051-.343.137-.291.223-.24.274-.171.325-.1.394-.034.5.051.565.24v.993l-.462-.343-.24-.1-.411-.086-.24.034-.154.069-.1.12-.051.12.051.171.171.171.617.343.651.462.24.36.069.445-.051.325-.12.291-.223.24-.257.171-.308.12-.343.034-.343-.017-.325-.068-.617-.308v-1.13l.445.48.24.154.257.1.257.034.257-.034.171-.086.086-.12.034-.12-.051-.205-.171-.188-.617-.36-.617-.445-.223-.325Zm2.963-1.524h1.421l.445.051.36.137.274.188.223.24.12.308.034.325-.034.325-.137.308-.223.24-.308.188-.377.12-.462.034h-.48v1.678h-.856Zm.856.771v.925h.531l.274-.051.171-.086.12-.137.051-.206-.034-.154-.086-.137-.154-.1-.325-.051Zm2.381-.771H59.7v4.145h-.856Zm1.61,0h1.182l.428.034.36.12.308.171.24.24.137.308.051.343-.051.36-.154.291-.24.24-.137.069.1.068.24.257.206.308.24.325.24.343.137.188.36.428H63.04l-.582-.856-.24-.325-.188-.24-.171-.154-.137-.051-.274-.051h-.1v1.678h-.856v-4.093Zm.873.736v.959h.257l.24-.034.188-.051.12-.068.086-.154.051-.188-.051-.171-.1-.137-.206-.086-.343-.034h-.24Zm2.894-.736h.856v4.145h-.856Zm1.25,0h3.734v.771H67.767v3.374H66.91v-3.374H65.472Zm5.789,1.541h0l.223-.531.36-.428.48-.325.565-.223.668-.068.445.034.428.086.36.171.48.325.36.428.206.531.069.548-.069.531-.206.514-.343.428-.48.325-.377.171-.428.086-.462.034-.445-.034-.428-.086-.377-.171-.462-.325-.343-.428-.223-.514-.068-.531Zm.873.137-.051.394.051.377.137.308.223.257.308.223.343.137.428.034.411-.034.36-.137.291-.223.24-.257.137-.308.051-.377-.051-.377-.137-.325-.24-.257-.291-.223-.36-.137-.411-.034-.428.034-.343.137-.308.223-.223.257Zm4.35-1.678H78.95v.771H77.34v.8h1.61v.771H77.34v1.8h-.856Zm4.727,0h2.62v.771H82.067v.908h1.678v.754H82.067v.942h1.8v.617l1.764-1.97-1.764-2.021h1.079l1.25,1.4,1.233-1.4H88.49l-1.764,2,1.884,2.141H87.548l-1.353-1.524-1.387,1.524h-3.6Zm7.45,1.559h0l.24-.548.377-.428.48-.325.582-.206.651-.068.343.017.343.051.377.1.48.171v.908l-.548-.291-.325-.12-.668-.086-.428.034-.36.137-.308.223-.223.274-.137.325-.051.36.051.377.137.325.24.257.308.206.377.137.445.034.343-.034.325-.068.343-.137.548-.291v.908l-.394.171-.36.12-.411.068-.462.017-.514-.034-.445-.1-.394-.188-.462-.36-.308-.428-.206-.462-.051-.462Zm4.487-1.559h2.62v.771H94v.908h1.7v.754H94v.942H95.82v.771H93.148Zm3.117,0h.856v3.357h1.867v.771H96.265Zm3.083,0h.856v3.357h1.867v.771H99.348Zm3.066,0h2.62v.771H103.27v.908h1.7v.754h-1.7v.942h1.815v.771h-2.672Zm3.134,0h.651l2.62,2.809v-2.809h.8v4.145h-.7l-2.586-2.774v2.774h-.822v-4.145Zm4.744,1.559h0l.24-.548.377-.428.5-.325.565-.206.668-.068.343.017.343.051.377.1.5.154v.925l-.565-.291-.325-.12-.685-.086-.428.034-.36.137-.308.223-.24.274-.137.325-.051.36.051.377.137.325.223.257.308.206.377.137.445.034.343-.034.343-.068.343-.137.548-.291v.908l-.771.291-.411.068-.462.017-.5-.034-.445-.1-.394-.188-.445-.36-.343-.428-.188-.462-.051-.462Zm4.487-1.559h2.62v.771h-1.764v.908h1.7v.754h-1.7v.942h1.815v.771h-2.672Z" transform="translate(-32.486 -313.92)"/></g></g></svg>