<svg xmlns="http://www.w3.org/2000/svg" xmlns:xlink="http://www.w3.org/1999/xlink" width="240.302" height="283.636" viewBox="0 0 240.302 283.636"><defs><style>.a{fill:#fff;}.b{fill:url(#e);}.c{fill:url(#f);}.d{fill:url(#g);}.e{fill:url(#h);}.f{fill:#f6891f;}.g{fill:#fffbcc;}.h{stroke:rgba(0,0,0,0);opacity:0.02;}.i{filter:url(#c);}.j{filter:url(#a);}</style><filter id="a" x="25.931" y="13.033" width="171.71" height="63.828" filterUnits="userSpaceOnUse"><feOffset dy="3" input="SourceAlpha"/><feGaussianBlur stdDeviation="3" result="b"/><feFlood flood-opacity="0.161"/><feComposite operator="in" in2="b"/><feComposite in="SourceGraphic"/></filter><filter id="c" x="0" y="41.962" width="240.302" height="241.674" filterUnits="userSpaceOnUse"><feOffset dy="3" input="SourceAlpha"/><feGaussianBlur stdDeviation="3" result="d"/><feFlood flood-opacity="0.161"/><feComposite operator="in" in2="d"/><feComposite in="SourceGraphic"/></filter><linearGradient id="e" x1="-12.411" y1="31.322" x2="-11.775" y2="31.322" gradientUnits="objectBoundingBox"><stop offset="0"/><stop offset="0.144" stop-color="#0b0b0b"/><stop offset="0.339" stop-color="#212121"/><stop offset="0.485" stop-color="#3b3b3b"/><stop offset="0.661" stop-color="#b3b3b3"/><stop offset="0.673" stop-color="#9c9c9c"/><stop offset="0.695" stop-color="#797979"/><stop offset="0.718" stop-color="#5d5d5d"/><stop offset="0.741" stop-color="#4a4a4a"/><stop offset="0.764" stop-color="#3e3e3e"/><stop offset="0.788" stop-color="#3b3b3b"/><stop offset="1" stop-color="#1c1c1c"/></linearGradient><radialGradient id="f" cx="380.503" cy="-30.252" r="16.294" gradientTransform="matrix(0.831, -0.068, 0.068, 0.831, -21.416, -113.738)" gradientUnits="userSpaceOnUse"><stop offset="0.191" stop-color="#fff200"/><stop offset="0.36" stop-color="#feeb01"/><stop offset="0.601" stop-color="#fcd806"/><stop offset="0.849" stop-color="#fabe0e"/><stop offset="0.911" stop-color="#f7a315"/><stop offset="1" stop-color="#f47721"/></radialGradient><linearGradient id="g" x1="-18.159" y1="43.165" x2="-17.005" y2="43.165" gradientUnits="objectBoundingBox"><stop offset="0" stop-color="#fff200"/><stop offset="0.145" stop-color="#feeb01"/><stop offset="0.352" stop-color="#fcd806"/><stop offset="0.596" stop-color="#f9b90f"/><stop offset="0.867" stop-color="#f68e1a"/><stop offset="1" stop-color="#f47721"/></linearGradient><radialGradient id="h" cx="470.756" cy="-1339.481" r="11.026" gradientTransform="matrix(0.716, -0.373, 0.308, 0.592, 478.381, -826.921)" xlink:href="#f"/></defs><g transform="translate(-577.76 -496.148)"><g transform="translate(586.76 515.181)"><g class="j" transform="matrix(1, 0, 0, 1, -9, -19.03)"><path d="M778.5,557.687l-76.2-31.021L626.545,570.38l-1.086-1.533,76.576-44.295.469.18,76.665,31.2Z" transform="translate(-590.53 -505.52)"/></g><g transform="translate(0 28.93)"><g class="i" transform="matrix(1, 0, 0, 1, -9, -47.96)"><path class="a" d="M792.242,567.726l-205.482,16.7L603.58,791.4l205.482-16.7ZM602.834,598.183,778.6,583.9l14.388,177.043L617.222,775.227Z" transform="translate(-577.76 -519.76)"/></g></g></g><g transform="translate(676.347 496.148)"><g transform="translate(0)"><path class="b" d="M738.074,524.7a.881.881,0,0,1-.737-.015l-5.175-8.415a1.834,1.834,0,0,1,.748-2.6h0a1.834,1.834,0,0,1,2.561,1.082l3.015,9.381A.651.651,0,0,1,738.074,524.7Z" transform="translate(-724.23 -501.864)"/><g transform="translate(1.883 7.738)"><path class="c" d="M728.958,508.506c3.94-1.61,8.077-.742,9.66,1.9,0-.015-.007-.029-.011-.044.014.026.025.058.04.084a4.431,4.431,0,0,1,.488,1.2c.935,3.377-1.506,7.028-5.491,8.657-4.232,1.731-8.6.52-10.049-3.021-.023-.052-.041-.107-.06-.161.008.015.019.026.027.041C722.4,514.062,724.783,510.211,728.958,508.506Z" transform="translate(-723.268 -507.696)"/></g><path class="d" d="M734.7,508.7a1.878,1.878,0,0,1,.4.8c.446,1.948-.657,3.521-2.545,4.291-2.046.836-4.439.145-5.013-1.766l-.472-2.654a1.834,1.834,0,0,1,1.061-2l2.691-1.2a1.834,1.834,0,0,1,2.14.486Z" transform="translate(-722.631 -499.404)"/><path class="e" d="M724.691,496.75c-3.146,1.285-4.926,4.208-3.978,6.529s4.266,3.157,7.41,1.872,4.928-4.207,3.979-6.527S727.836,495.465,724.691,496.75Z" transform="translate(-720.458 -496.148)"/><g transform="translate(0.471 2.542)"><path class="f" d="M728.358,506.4c3.115-1.273,4.891-4.152,4-6.46a4.157,4.157,0,0,1,.236.486c1.074,2.632-.778,5.614-3.923,6.9s-6.392.387-7.467-2.246c-.016-.039-.03-.079-.046-.119C722.326,506.948,725.417,507.6,728.358,506.4Z" transform="translate(-721.161 -499.941)"/></g><path class="g" d="M737.952,513.583a1.785,1.785,0,0,1-.148.392,4.6,4.6,0,0,1-2.823,2.232c-.667.2-1.241.655-1.011.982.454.643.931.532.931.532s4.045.16,4.463-4.728c.088-1.039-.539-1.51-.942-.765A6.877,6.877,0,0,0,737.952,513.583Z" transform="translate(-724.899 -501.333)"/></g></g><path class="h" d="M4.9,23.556C1.618,22.692-.525,20.024.113,17.6a4.493,4.493,0,0,1,3.926-3.01h0A4.523,4.523,0,0,0,.131,17.531,4.225,4.225,0,0,1,.235,17a4.628,4.628,0,0,1,3.578-3.224C1.549,12.276.217,10.042.45,7.867c-.008.016-.013.029-.019.042A.719.719,0,0,0,.45,7.82a4.662,4.662,0,0,1,.121-.634,4.335,4.335,0,0,1,.212-.618C1.935,3.649,5.381,2.185,9.076,2.7L9.937.224a.649.649,0,0,1,.67-.207.878.878,0,0,1,.582.456l-.251,2.649a9.946,9.946,0,0,1,2.953,1.506,6.416,6.416,0,0,1,2.694,6.792c-.014.055-.032.11-.05.165a.4.4,0,0,0,0-.05c-.668,2.268-3.012,3.753-5.884,4a4.629,4.629,0,0,1,1.48,4.608c-.012.034-.021.069-.031.1a3.461,3.461,0,0,1-.092.493c-.5,1.9-2.574,3.092-5.033,3.092A8.116,8.116,0,0,1,4.9,23.556Z" transform="translate(679.683 519.017)"/></g></svg>