<svg xmlns="http://www.w3.org/2000/svg" width="400" height="448.367" viewBox="0 0 400 448.367"><defs><style>.a{fill:#fff;opacity:0.45;}</style></defs><path class="a" d="M506.842,330.979c-1,.167-1.336,1-1.838,1.754-.251-.919-.919-1.754-.083-2.673a.533.533,0,0,0,0-.5c-.5-.668-.334-1.42-.5-2.088a1.113,1.113,0,0,1,.668-1.5,1.826,1.826,0,0,0,.418-.251c-.083-.418-.418-.334-.668-.418-.334-.084-.668-.167-.585-.585a1.593,1.593,0,0,0-.167-1.086c-.251-.418.334-.418.5-.585.251-.084.668-.167.585-.585,0-.084-.251-.251-.418-.251-.334,0-.251.334-.418.585-.585.167-.752-.251-.668-.668a12.982,12.982,0,0,0-.251-4.009c-.083-.5.083-1.086,0-1.67-.167-.585.585-.585,1.086-.752a1.755,1.755,0,0,1,.083-2.172,1.458,1.458,0,0,0,.334-1c-.334-1.086.334-1.754.835-2.506a7.21,7.21,0,0,1,.835-1.336,3.656,3.656,0,0,0,.585-2.756,1.722,1.722,0,0,1,.5-1.67c.418-.418.083-1-.5-1.086-.919-.167-1.169-.668-.752-1.336a3.635,3.635,0,0,1,.5-.585c-.251-.418-.668-.251-.919-.418a.645.645,0,0,1-.585-.668c0-.334.251-.418.5-.5.167,0,.5,0,.418-.334,0-.334-.251-.334-.585-.334-.835,0-.835-.084-.668-.919.084-.418-.167-.418-.5-.334-.334.167-.668.167-.835-.084-.251-.334-.167-.668,0-1.086.334-.668,1-1.169.752-2.088-.083-.418.334-.585.668-.752-.083-.418-.668-.084-.668-.418-.083-.418.251-.5.5-.668.835-.585,1.754-1,2.172-2a8,8,0,0,0-3.341-.418.524.524,0,0,1-.668-.167.479.479,0,0,1,.167-.585c.752-.334.5-1.086.752-1.587.251-.585.334-1.253,1.169-1.169a.481.481,0,0,0,.5-.5c0-.418-.334-.334-.585-.418-.334-.167-.585-.084-1,.167-.5.334-.835.167-.752-.334a5.245,5.245,0,0,1,.5-2.756c.418-.752.5-.835,1.336-.418l.752.251c1.336.5,1.67.334,2.339-1.086l-.167-.167a6.212,6.212,0,0,1-3.257-.251,1.59,1.59,0,0,0-2.172.668.437.437,0,0,1-.668.167c-.334-.251-.835-.418-.668-1,.083-.251.334-.5.251-.835-.083-.084-.167-.167-.251-.084-.585.919-1.5,1.587-1.921,2.673-.251.752-.251,1.837-1.42,2.255-.418.167-.668.668-.334,1.336.418.835.251.919-.752.919a7.412,7.412,0,0,0-1.253.167c.418.5.919.418,1.336.5.585.084,1.086.251,1.169.919.167.668,1.086.752,1.169,1.5,0,.334.167.5,0,.835-.835,1.587-1.5,3.341-2.923,4.594a.393.393,0,0,0-.084.668c.418.585.084.835-.418,1.086a15.539,15.539,0,0,1-3.759,1.336,1.187,1.187,0,0,0-.5.167,3.779,3.779,0,0,1-3.508.668.384.384,0,0,0-.5.418,1.479,1.479,0,0,1-1.5,1.42,13.19,13.19,0,0,0-3.759,1.169c-.752.251-1.837.251-2.088,1.42,0,.167-.418.084-.585.167a5.146,5.146,0,0,1-3.675-1,5.325,5.325,0,0,0-1.169-.668,15.221,15.221,0,0,1-5.513-3.675,39.46,39.46,0,0,1-5.095-6.1,41.186,41.186,0,0,0-6.6-7.684,23.35,23.35,0,0,1-4.51-5.763c-1.169-2.088-.752-3.591,1.336-4.928.5.418,0,.919.167,1.336.084,0,.167.084.251.084.334-.084.752-.5,1.086-.167.418.418-.084.835-.251,1.169-.167.585-.585,1.086-.334,1.921,1.42-.668,2.84-1.42,4.343-.752.084,0,.167.084.251.084.167-.084.084-.251,0-.334.167-.668.5-1,1.086-.5a.674.674,0,0,0,1-.084,3.765,3.765,0,0,1,1.169-.835c.752-.585,1-.167,1.253.418.251-.418.5-.835,1-.835.334,0,.5-.251.752-.418,1-1,1.336-1.086,2.756-.5.334.167.5-.084.668-.251a19.537,19.537,0,0,0,2.756-4.093,2.381,2.381,0,0,1,.668-1.169c.585.251.084.835.5,1.169a4.659,4.659,0,0,0,1.67-1.169c-.167-.251-.668-.084-.752-.585a1.948,1.948,0,0,0,1.336-1.086,2.13,2.13,0,0,1,1-.668,3.489,3.489,0,0,0,1.253-.919c.334-.251.585-.585.251-1a.584.584,0,0,0-.919.084c-.835,1-1.754.5-2.673.167-.167-.084-.334-.251-.585-.418-.919-.668-1.587.084-2.255.5-.585.334-1.086.668-.919,1.587s-.084,1.086-1,.919a.583.583,0,0,0-.752.5c.167.752-.251.668-.752.668a7.025,7.025,0,0,0-4.427,1.253c-.334.251-.668.418-1,.251-1.169-.5-2.589.084-3.759-.668a1.059,1.059,0,0,0-.5-.084,3.963,3.963,0,0,1-3.174-1c-1.42-1-2.84-1.921-4.176-2.84a10.355,10.355,0,0,1-3.424-3.926c-.251-.585.167-.668.334-1.086-.585-.752-2.172-.919-1.336-2.422-.334-.5-.752.418-1-.167a.911.911,0,0,1,.251-1.086.373.373,0,0,0,0-.418,4.123,4.123,0,0,1-2.255.251.842.842,0,0,1-.919-.585c-.084-.418.334-.585.585-.752a.307.307,0,0,1,.251-.084c.251-.167.668-.084.752-.5s-.418-.418-.585-.585c-.668-.919-.251-1.838,0-2.756.251-.752.835-.919,1.587-.919a17.609,17.609,0,0,1,2.923.418,20.679,20.679,0,0,0,2.255.251c.668.084,1-.251,1-.835.084-.919.084-1.754.167-2.673,0-.334.084-.668.084-1.086.084-.334.251-.585.585-.585s.752-.084.835.418a1.187,1.187,0,0,0,.167.5c.418.084.418-.334.585-.418.334-.251.752-.251.835.167.251,1,.835.919,1.5.5a.307.307,0,0,1,.251-.084,9.446,9.446,0,0,0,3.424-.084c.919-.084,1.921.084,2.923.084a1.79,1.79,0,0,1,1.837,1,1.584,1.584,0,0,0,1.838.919c.668,0,1.336-.084,2-.084.752,0,1.42,0,1.754-.919a1.615,1.615,0,0,1,1.336-.919,22.512,22.512,0,0,1,2.339-.334,6.25,6.25,0,0,0,2.673-.835.768.768,0,0,1,.835-.084.8.8,0,0,1,.167.835c0,.084-.084.167-.084.251-.418,1.253-.084,1.838,1.253,2.172,1.42.334,2,.167,2.673-1.086a1.347,1.347,0,0,1,1.42-.752,1.844,1.844,0,0,0,1.754-.668,1.849,1.849,0,0,1-1.587-2.088c0-1,.251-1.253,1.42-1.837a2.048,2.048,0,0,0-.5-1.336,18.974,18.974,0,0,1-1.754-5.6,3.318,3.318,0,0,0-1.169-2.172,3.515,3.515,0,0,1-1.169-2.339,16.108,16.108,0,0,1-.084-4.009c.084-.919-.251-1.169-1.169-.919a8.662,8.662,0,0,0-.835.334,2.782,2.782,0,0,1-3.09-.668,9.48,9.48,0,0,1-2.339-3.926c-.251-1.086-.418-2.088.5-2.923a1.679,1.679,0,0,0,.334-.668,22.87,22.87,0,0,0,.585-4.176c.084-1.253-.418-1.67-1.67-1.754-.167,0-.334-.084-.5,0-1.42.418-2.506-.251-3.591-.919a22.967,22.967,0,0,1-2.339-1.587,2.066,2.066,0,0,1-.835-2,11.291,11.291,0,0,1,2.339-5.847,2.611,2.611,0,0,1,.919-.752,15.094,15.094,0,0,0,6.014-6.1,8.063,8.063,0,0,1,4.427-4.343c1.67-.585,2.756-.167,3.341,1.5a10.658,10.658,0,0,1,.585,2.339c.251,1.253.585,1.42,1.838,1.42a6.6,6.6,0,0,0,2.756-.835A10.55,10.55,0,0,1,493.061,195c1.169.084,2.422,0,3.591,0a2.346,2.346,0,0,0,2.339-1.921,6.913,6.913,0,0,1,2.589-3.591,9.858,9.858,0,0,0,3.257-4.51,6.259,6.259,0,0,1,3.759-4.176c1.42-.585,2.756-1.336,4.176-2a8.167,8.167,0,0,0,2.756-2.84,38.4,38.4,0,0,0,3.675-6.515,16.818,16.818,0,0,0,.835-2.923,3.282,3.282,0,0,1,2.673-2.756,19.128,19.128,0,0,1,2.339-.585,2.588,2.588,0,0,0,1.086-.5,19.264,19.264,0,0,1,1.587-1.169c1.086-.752,1.086-.835.5-1.921a7.336,7.336,0,0,1-.5-.835.768.768,0,0,1,.083-1c.251-.251.585-.334.418-.835-.167-.418.251-.585.668-.668a1.878,1.878,0,0,0,1.5-1.336,1.6,1.6,0,0,1,1.169-1,1.729,1.729,0,0,0,1.086-.919,11.122,11.122,0,0,1,3.926-4.427c.418-.251.418-.5.251-1a7.866,7.866,0,0,1-.083-3.424c0-.585.5-1,1-1.336.418-.251.668-.585.084-1-.251-.167-.5-.418-.251-.752.251-.418,0-.752-.334-1-.919-1.086-.919-1.67-.167-2.923A4.958,4.958,0,0,1,540,134.534c.334-.084.585-.418.835-.668a2.966,2.966,0,0,1,1.587-.668c1.253.167,2.422-.418,3.675-.585a1.961,1.961,0,0,0,1.5-1.67c.167-.752.334-1.587-.5-2.172-.668-.418-1-1.336-1.921-1.253-.251,0-.334-.334-.585-.585a.693.693,0,0,0-.668-.251,1.977,1.977,0,0,1-1.67-.167,3.907,3.907,0,0,0-1.42-.167,1.688,1.688,0,0,1-1.921-1.42,1.067,1.067,0,0,1,.167-1c.5-.5-.083-1-.083-1.5,0-.167-.251-.251-.418-.251-2,.167-3.591-.835-5.178-1.837a13.114,13.114,0,0,1-3.09-2,1.3,1.3,0,0,0-1.336-.334.9.9,0,0,1-1.169-.251,4.664,4.664,0,0,0-.668-.418,3.965,3.965,0,0,1-1.67-3.007,8,8,0,0,1,.334-3.424,3.477,3.477,0,0,0,0-2.255,4.76,4.76,0,0,1-.251-2.84,8.63,8.63,0,0,0-.167-2.923,30.416,30.416,0,0,1-.334-4.761c0-.585.083-1.169-.585-1.5a1.013,1.013,0,0,1-.25-1.086l.25-1a1.688,1.688,0,0,1,1.921-1.42c1.336.084,1.42,0,1.587-1.253a1.615,1.615,0,0,1,.919-1.336,5.338,5.338,0,0,1,1.587-.668,3.071,3.071,0,0,0,2.339-2.255,4.792,4.792,0,0,0,.334-1.169c.5-1.336-.083-1.754-1.169-2.088a4.276,4.276,0,0,1-1.754-.835c-.334-.334-.752-.167-1.086.084a.434.434,0,0,1-.752-.334c-.083-1.169-.418-2.422.668-3.341.251-.251.418-.5.167-.835a.635.635,0,0,0-.835,0c-1.587.668-1.837.585-3.007-.585a4.98,4.98,0,0,0-1.838-1.336,3.533,3.533,0,0,1-2-2.673v-.5c-.084-.919-.668-1.336-1.42-.835a1.184,1.184,0,0,1-1.67-.084c-.334-.334-.752-.251-1.169,0a2.4,2.4,0,0,1-2.756-.251,1.094,1.094,0,0,1-.418-1.5,1.4,1.4,0,0,0,0-1.5,5.481,5.481,0,0,1,.668-3.007,1.315,1.315,0,0,1,1.086-.334,1.347,1.347,0,0,0,1.42-.752c.418-.752,1.42-1.169,1.5-2.255.835-.167,1.086-1.086,1.838-1.42a1.109,1.109,0,0,0,.752-1.336c-.083-1.169.334-1.5,1.336-1.336s1.921.418,2.756-.334c.083-.084.418-.167.5-.084.668.585,1.67.167,2.422.752a.636.636,0,0,0,.752.084,2.886,2.886,0,0,1,1.67-.084c.167,0,.418,0,.5-.167a.5.5,0,0,0-.083-.585,4.183,4.183,0,0,0-.668-.585c-.251-.167-.585-.334-.919-.585-.251-.167-.585-.334-.5-.668.084-.418.5-.418.919-.418a4.031,4.031,0,0,1,2.923,1.169c.835.835.835.919,1.587,0a2.023,2.023,0,0,1,1.838-.919,1.282,1.282,0,0,0,1.086-.418,1.777,1.777,0,0,1,2.756-.167c.334-.251.251-.585.334-.919a1.239,1.239,0,0,1,2-.5c.668.5,1.5.752,1.921,1.67.083.251.5.251.835.084.25-.167.585-.5.835-.334,1.086.668,1.5-.334,2.088-.752.251-.167.418-.5.668-.585a.872.872,0,0,1,1.253.334c.167.251.167.5.334.752a5.371,5.371,0,0,0,1.921,2.756,6.8,6.8,0,0,1,2,2.339,4.771,4.771,0,0,0,2.172,2.088,5.857,5.857,0,0,0,2.339,1c.752.084,1.169.752,1.42,1.42.251.585.585.835,1.086.752.919-.167,1.42.418,1.921.919a5.382,5.382,0,0,1,.919,1.336,1.92,1.92,0,0,0,1.5,1,2.288,2.288,0,0,1,2,2.589c0,.334-.083.585-.083.919a2.822,2.822,0,0,0,3.508,2.422c.5-.167.919-.251,1.253.334.418.585,1,.585,1.67.668,1.253.084,1.838.919,2.255,2,.334.919.083,1.086-1.086,1.169.5,1,.5,1,1.336.668.25-.084.5-.251.668-.167a2.572,2.572,0,0,0,2.673-.334c.334-.251.668.167.919.334.668.418.919.334,1.253-.334,0-.084.083-.167.083-.251.5-1.169.585-1.169,1.42-.334.585.585.919.585,1.253-.084a4.81,4.81,0,0,1,2.756-2.506,4.617,4.617,0,0,1,2.088-.585.722.722,0,0,0,.5-.251,3.718,3.718,0,0,1,3.174-.919,2.074,2.074,0,0,0,.752-.084,2.411,2.411,0,0,1,2.255.251c1.086.585,1.587.334,1.837-.919.251-1.086.668-1.42,1.754-1.42a1.059,1.059,0,0,1,1.086.585,2.847,2.847,0,0,0,1.921,1.336,6.645,6.645,0,0,1,2.088.919,1.541,1.541,0,0,0,2.088,0c.919-.668,1.169-.5,1.838.418a7.345,7.345,0,0,1,.5.835,3.261,3.261,0,0,0,1.67,1.67c1.42.668,1.587.919,1.42,2.506a13.085,13.085,0,0,1-1.336,4.677,3.907,3.907,0,0,0-.418,2.172,4.605,4.605,0,0,1-.835,2.923,3.973,3.973,0,0,0-.585,1.921c-.167.835-.334,1-1.253,1.086-.668.084-1.336-.251-1.921.251s-.251,1.253-.251,1.921c-.083.752-.334,1-1.086.919a12.463,12.463,0,0,0-1.754-.167q-.877,0-.5.752a6.445,6.445,0,0,1,.585,2.172c.083.752,0,1.253-.835,1.587a2.184,2.184,0,0,0-1.169,2.339c.083.585-.25.668-.668.585-.334-.084-.668-.334-1-.418-.835-.167-1.67-.585-2.506.084a1.257,1.257,0,0,1-1.42,0,.8.8,0,0,0-1.086.251.876.876,0,0,0,.083,1c.585,1,.752,2.172,1.587,3.09a1.072,1.072,0,0,1,.334.835c.084,1.336-.418,1.587-1.336,1.42-.167,0-.418-.167-.752.084a4.549,4.549,0,0,1,.083,1.837,1.969,1.969,0,0,0,2.088,2.339,18.637,18.637,0,0,1,3.758.668c.919.251,1.086.585.752,1.5l-.25.5c-.5,1.253-.752,2.422.418,3.508.668.585,1.086,1.5,1.754,2.172a.741.741,0,0,1,0,1.253,8.186,8.186,0,0,0-1.754,2.339c-.167.418-.5.5-.835.167a5.406,5.406,0,0,1-.668-.752c-.418,0-.5.334-.668.585-.25.334-.5.668-.919.668-.835-.084-1,.418-1.169,1.086-.167.919-1.169.919-1.754,1.253-.5.334-.919-.167-1.253-.585a5.039,5.039,0,0,0-.668-.668,2.6,2.6,0,0,1-1.169-2.673v-.835a.4.4,0,0,0-.5-.334c-.919.835-2.172.668-3.174,1.253-.919.5-.919.668-.25,1.336a1.639,1.639,0,0,1,.418,2.339c-.418,1-.418,1,.668,1.42a1.061,1.061,0,0,1,.835,1.086,1.547,1.547,0,0,0,.752,1.42c.167.167.334.418.5.585a1.928,1.928,0,0,1,.334,2.589,3.029,3.029,0,0,0-.334,2.088,2.24,2.24,0,0,0,.919,1.42c.919.585.835,1.086,0,1.754-.083.084-.25.167-.334.251-.5.334-.585.668,0,1.086.668.418.752,1.253,1.086,1.921.334.835.585.919,1.253.334a8.574,8.574,0,0,0,1.587-2.172,5.406,5.406,0,0,1,2.673,3.09A8.952,8.952,0,0,0,600.8,149.4c.418.5,1,1,1.5,1.5a1,1,0,0,0,1.5.167,1.668,1.668,0,0,1,2.255,0,17.528,17.528,0,0,0,4.594,2.84c.835.334,1,.752.668,1.67-.167.668,0,1.086.585,1.253a12.131,12.131,0,0,1,2.673,1.5,1.134,1.134,0,0,0,1.253.084,1.094,1.094,0,0,1,1.5.418c.5.5,1,1,1.587,1.5a4.068,4.068,0,0,0,2.088,1c.919.167,1.253.668,1.253,1.336,0,.585-.334.919-.835.668-1.336-.585-2,.167-2.589,1.086a4.424,4.424,0,0,1-2.422,2c-.668.251-.919.835-1.253,1.336a3.107,3.107,0,0,1-1.42,1.5c-.752.334-.919.752-.5,1.5.418.835.5,1.5-.334,2.172-.5.334-.668,1.086-1.336,1.42-.334.167-.167.5,0,.835.919,1.921.752,2.589-.919,3.842a2.06,2.06,0,0,0-1,1.921v.5c-.668,1.253,0,1.921,1,2.589,1.253.835,2.339,1.754,3.508,2.589.919.668,1,.668,1.253-.585,0-.084.083-.167.083-.251.418-.084.5.251.668.5a4.125,4.125,0,0,0,1.67,1.5c1.587.585,3.09,1.587,4.761,1.921a5.424,5.424,0,0,1,3.424,2.923c.334.585.5,1.169,1.42,1.169.418,0,.668.418.919.668,1.5,1.587,3.424,2.339,5.095,3.591.418.334.668.084.919-.251.418-.752.919-.668,1.587-.418a11.851,11.851,0,0,1,4.343,2.506,2.766,2.766,0,0,0,2.923.668c.334-.084.668-.251,1-.334.668-.167.919-.084,1,.585.083.334.083.668.167,1.086a1.915,1.915,0,0,0,1.253,1.5,26.569,26.569,0,0,0,2.756.835c.251,0,.5.084.752-.084,1.169-.5,1.921.084,2.673.919.083.084.083.167.167.251.251.334.418.752.919.585.334-.167.251-.585.167-.919-.083-1,.083-1.169,1-1.253,1.42-.084,2.756-.167,3.926.835.418.334.668.418,1-.167s.919-.418,1.42-.334c.835.084,1.587.418,2-.668a.545.545,0,0,1,.919,0,1.912,1.912,0,0,0,1.42.668.459.459,0,0,1,.418.251c.5,1,1.5,1,2.422,1a7.184,7.184,0,0,1,1.336.084,2.246,2.246,0,0,1,2,2.756,2.436,2.436,0,0,1-.167.752c-.25.919.083,1.336,1,1.336a5.462,5.462,0,0,1,2.84.919,1.227,1.227,0,0,1,.5.418c.5.752,1,1.169,2,.835.418-.167.668.334.835.668.334.5.585,1.086,1.42,1,.585-.084,1.086,0,1.587-.5a8.667,8.667,0,0,1,1.42-1,2.157,2.157,0,0,1,1.754-.418,1.273,1.273,0,0,1,1.253,1.169,5.918,5.918,0,0,1,.083,1.169,1.5,1.5,0,0,0,2.422,1.253,3.017,3.017,0,0,1,3.591-.251,1.162,1.162,0,0,0,1.169.084,1.968,1.968,0,0,1,1.921.167c1.169.585,2.422,1.169,3.591,1.754.585.334,1.086.668,1.671.084,1.086.251,1.67-.752,2.589-1.086a.935.935,0,0,0,.668-.585c.334-.585.835-.5,1.086.084a2.439,2.439,0,0,1,.167.752c.251.919.585,1.169,1.5,1.086.25,0,.5-.167.668-.084.752,1.169,1.253.251,1.838-.251a1.622,1.622,0,0,1,2-.084,1.184,1.184,0,0,0,1.67,0c.418-.418,1.336,0,1.587-1,.083-.251.5.084.668,0a1.746,1.746,0,0,1,2,.752c.334.5.752.418,1.086-.084l.083-.084a27.823,27.823,0,0,0,1.336-4.26,3.863,3.863,0,0,0-1.169-3.675c-.5-.5-1-1.169-1.587-1.67a1.183,1.183,0,0,1-.251-1.587,4.3,4.3,0,0,0,.418-2.923,5.2,5.2,0,0,1,.585-3.842,13.577,13.577,0,0,0,.919-1.921c.334-.835.418-1.587-.418-2.172-.334-.251-.585-.5-.334-.919a.96.96,0,0,1,.919-.5c1.838.167,3.174-.752,4.427-2a3.146,3.146,0,0,1,1.253-.752,1.573,1.573,0,0,1,.668-.167,4.992,4.992,0,0,1,3.09,2.589,5.4,5.4,0,0,1,.083,2.589,19.544,19.544,0,0,1-.752,3.174,2.052,2.052,0,0,0,.835,2.589,1,1,0,0,1,.5,1.086c-.083.418-.083.752-.585.835-.585.084-.752.585-.752,1.086s.334.668.752.835c.334.084.835.167.752.585-.083,1.5,1.253,1.754,2.088,2.339a2.309,2.309,0,0,1,1.086.919c.251.668.752.668,1.336.5.418-.167.919-.418,1.336-.585.835-.251,1.754-.585,2.506.251a.9.9,0,0,0,.668.167c.251,0,.585-.084.752.084a9.578,9.578,0,0,0,2.589.919,4.047,4.047,0,0,0,1.42,0c1.086,0,2-.418,3.007-.418s1.169-.251,1.336-1.169a.676.676,0,0,1,.752-.668c.25,0,.668,0,.752-.167.835-1,1.5-.251,2.255.167a6.189,6.189,0,0,0,3.926.752,11.162,11.162,0,0,1,3.341-.5h.084c1.169-1.169,2.506-.585,3.758-.334a.868.868,0,0,0,1-.334c.418-.752.919-.835,1.5-.334a1.015,1.015,0,0,0,1.336,0,1.187,1.187,0,0,1,.5-.167,3.558,3.558,0,0,0,3.341-1.587c.25-.334.668-.251,1-.084a3.269,3.269,0,0,1,.835.668c.835.585,1.253.418,1.5-.585a1.674,1.674,0,0,0-.334-1.754c-.083-.084-.083-.167-.167-.251a3.11,3.11,0,0,1-.835-3.842c.334-.919-.167-1.587-.167-2.422a.535.535,0,0,0-.668-.5c-.668.167-1.42-.167-2.088.167-1.336.585-2.506,0-3.591-.835-.668-.5-.668-1.253-.251-2.088.334-.668,1-1.336,0-2.088-.25-.167-.167-.5.083-.668s.5-.251.668,0c.334.752,1,.752,1.67.752a1.912,1.912,0,0,1,1.42.668,1.024,1.024,0,0,0,1.336.167,6.836,6.836,0,0,0,2.255-1.837c.919-1.086,1-1.086,2.088-.084.418.418.752.251,1.169.084a17.007,17.007,0,0,0,1.838-.752,5.138,5.138,0,0,0,2-2c.167-.334-.083-.668-.25-1-.5-.919-.418-1.086.334-1.67.5-.418.919-1.253,1.754-.752.083,0,.251,0,.251-.084.25-.835,1.169-.919,1.67-1.42a2.03,2.03,0,0,1,1.5-.752,1.059,1.059,0,0,0,.5-.084c.835-.251,1-.668.418-1.336-.334-.418-.418-.668,0-1a2.616,2.616,0,0,0,.919-1.837,1.527,1.527,0,0,1,1.086-1.253c.835-.251,1.67-.752,2.589-.251a.654.654,0,0,0,.668-.084c1-.835,2.255-.585,3.424-.668.668,0,1.086-.251,1.086-.919a4.527,4.527,0,0,1,1.587-3.257,3.9,3.9,0,0,0,1-1.67,4.99,4.99,0,0,1,3.926-3.424c.668-.167.919-.668,1.169-1.169.418-.919.668-1,1.5-.5a4.191,4.191,0,0,1,1.253,1.169,1.676,1.676,0,0,0,1.5.835,5.851,5.851,0,0,1,1.169.251c.167,0,.418.084.418-.167-.083-.835.5-.5.668-.334a3.055,3.055,0,0,0,2.339.752.73.73,0,0,1,.752.418,1.847,1.847,0,0,0,1.587.5.971.971,0,0,0,1.086-1.086,5.246,5.246,0,0,1,.25-1.587c.167-.418.334-.919.668-1.086,1.086-.418,1.838-1.42,3.007-1.837a8,8,0,0,0,2-1.42,2.129,2.129,0,0,1,3.424.835,1.572,1.572,0,0,1,.167.668c.251.752.334.752,1,.418.334-.167.668-.585,1-.167a1,1,0,0,1,0,1.253c-.083.167-.25.251-.334.418-.334.418-1,.418-1.336.835-.334.334-.5,1-1.42.835a8,8,0,0,1,1.336,2.255,9.157,9.157,0,0,1,2.088-2.255c.835-.5,1-.5,1.67.167a7.54,7.54,0,0,1,1.754,3.675c.167.585.167,1.169-.418,1.5a1.624,1.624,0,0,0-.752,1.169.307.307,0,0,1-.083.251c-.167.668-1,.835-1.169,1.42s.083,1.253-.585,1.587a1.034,1.034,0,0,0,.167.251,6.192,6.192,0,0,0,2.339-.668c1.253-1.169,2.506-.752,3.759,0,.334.167.668.418,1.086.251a1.033,1.033,0,0,1,1.169.334c.334.5.752.5,1.086.084a.947.947,0,0,1,1.5-.167c.919.585,2.088.5,3.007,1.086.418.251.5.418.334.835a2.958,2.958,0,0,0-.251.919.526.526,0,0,0,.251.668,1.237,1.237,0,0,1,.752,1.587c-.083.334.083.585.167,1.086-1.253-.418-1.754.251-2.422,1.086a27.013,27.013,0,0,1-2.923,3.341.936.936,0,0,0-.251,1.253,1.658,1.658,0,0,1,.083.919,1.284,1.284,0,0,0,.5,1.169c1,.919,1.587,2.255,2.673,3.09a1.341,1.341,0,0,1,.418.919c0,.585-.334,1-.835.919a5.42,5.42,0,0,1-2.923-1.253c-.251-.167-.251-.5-.334-.752a1.773,1.773,0,0,0-2.172-1.42c-.919,0-1.587,0-2.088,1-.167.418-.752.334-1.253.418a8.748,8.748,0,0,0-2.506.418c-1.67.835-3.341,1.67-4.009,3.591a1.577,1.577,0,0,1-1.086,1.086c-.585.167-.919.752-1.42,1.169-.752.752-1.253,1.921-2.422,2.339-.5.167-.752.668-1.086,1.169a2.713,2.713,0,0,1-2.673,1.67,1.3,1.3,0,0,0-1.086.585,17.675,17.675,0,0,0-.919,1.754.888.888,0,0,0,.083,1c.835,1.253.668,2.673.835,4.093a2.368,2.368,0,0,0,.334,1.086c.668.919.585,1.253-.334,1.921-.25.251-.585.334-.752.668a1.377,1.377,0,0,0,0,1.67,1.256,1.256,0,0,1,0,1.587,19.128,19.128,0,0,0-1.169,2.255,3.511,3.511,0,0,1-2.255,2.088,1.331,1.331,0,0,0-1.086,1.169,15.24,15.24,0,0,0-.585,2.088c-.083,1,.167,1.42,1.086,1.67,1.42.418,1.587.752,1.253,2.172a30.427,30.427,0,0,1-3.09,7.434c-.083.251-.334.5-.334.668a19.649,19.649,0,0,1-1.169,4.343c-.5,1.837-.919,3.759-1.42,5.6-.167.585-.585.752-1.086.334a7.861,7.861,0,0,0-1.838-1c-.418-.084-.835-.251-1.169,0-.5.418-.835.251-1.336-.084a2.4,2.4,0,0,0-3.09,0c-.752.585-.835.418-1.5-.334a2.5,2.5,0,0,0-1.253-1c-.334-.084-.668-.084-.668.5a6.95,6.95,0,0,0,.334,1.253,11.173,11.173,0,0,1,1.086,7.851,6.175,6.175,0,0,0,.167,2.756,4.205,4.205,0,0,1-.418,2.84,1.284,1.284,0,0,1-1.587.835c-.835-.167-1.169.084-1.253.919a15.014,15.014,0,0,0,.083,4.343,15.629,15.629,0,0,0,1.086,3.341,6.027,6.027,0,0,1,.668,2.673c.083.752,0,1.42-.835,1.754-.083,0-.251.167-.334.251-.251.418.25.919-.334,1.253a.868.868,0,0,0-.5,1.086c.083.418-.418.585-.835.752a.674.674,0,0,1-.752-.334,4.083,4.083,0,0,0-1.838-1.5c-.418-.167-.668-.084-.752.418a4.819,4.819,0,0,1-.25,1.169c-.251.585-.585.668-1.169.334-.668-.5-.752-.752-.334-1.5.167-.251.25-.418,0-.668a5.108,5.108,0,0,1-1.086-3.257c-.083-1.754-.919-3.341-1.253-5.011a4.986,4.986,0,0,0-.752-1.253,7.052,7.052,0,0,1-1.5-3.759,5.081,5.081,0,0,0-.668-2.255c-.334-.5-.334-.919.251-1.169.668-.334.585-.835.167-1.336-.334-.418-.585-.835-.919-1.336a3.017,3.017,0,0,1-.585-3.007,1.075,1.075,0,0,0-.083-1c-.334-.167-.5.084-.668.334a.439.439,0,0,1-.752.167c-.418-.334-.752-.251-1.169.167-.752.752-.752.752-1.587.084-.167-.167-.334-.334-.585-.251s-.25.334-.167.585a8.381,8.381,0,0,0,.334,2,1.155,1.155,0,0,1-.251,1.336,2.215,2.215,0,0,0-.418.5c-.668,1.086-1.587,2-.668,3.591.752,1.253-.585,3.591-1.921,4.009a1.431,1.431,0,0,1-1.838-1.253,6.445,6.445,0,0,0-.835-2.088,2.7,2.7,0,0,0-1.086-1.086,2.566,2.566,0,0,0-.167,1.754,1.769,1.769,0,0,1,.25.585c.083.251.167.585-.167.668a.693.693,0,0,1-.668-.251,1.1,1.1,0,0,1-.251-.835,11.016,11.016,0,0,0-2.339-5.763,3.346,3.346,0,0,1-.668-3.257c.334-1.67.585-3.424,2.088-4.594.251-.167.167-.5.251-.752.167-.835.5-1,1.253-.835,1.336.334,1.587.251,2.172-1.086.251-.5.5-1.086,1.253-.919a.634.634,0,0,0,.334-.167c.418-.585.835-.251,1.253.084.251.251.334.668.835.668a2.843,2.843,0,0,0,0-1.67,1.862,1.862,0,0,1,1.921-2.255c.752.084.919-.167.919-.835a1.01,1.01,0,0,1,.585-1.086c.585-.167.585-.668.5-1.086a2.626,2.626,0,0,1,.418-1.754c.5-.919.418-1-.334-1.754-.083-.084-.167-.084-.167-.167-.418-.334-.668-.752-.25-1.253a1.188,1.188,0,0,1,1.67-.084c.083.084.167.334.334.418a1.142,1.142,0,0,0,1.5-.084.254.254,0,0,0,0-.334c-.083-.167-.334-.334-.418-.5a3.7,3.7,0,0,0-3.09-1.921,3.239,3.239,0,0,1-.919-.5,3.757,3.757,0,0,0-3.341-.835,6.7,6.7,0,0,0-2.84.919,1.379,1.379,0,0,1-1.754.167c-.083-.084-.25-.167-.334-.084-1.253.585-2.339-.084-3.508-.251a8.832,8.832,0,0,0-4.427.334,7.646,7.646,0,0,1-4.343.418,2.877,2.877,0,0,0-1.67.334,3.9,3.9,0,0,1-3.341,0,4.452,4.452,0,0,0-1.587-.334,4.96,4.96,0,0,1-2.172-.585,5.972,5.972,0,0,0-2.088-.251c-1.086,0-1.67-.5-1.42-1.587.251-1,0-2.172.418-3.174.167-.418-.083-.752-.251-1.086a3.851,3.851,0,0,1-.334-3.675,1.723,1.723,0,0,0-.167-1.67c-.668-1-1.336-2.088-2-3.09-.25-.418-.585-.418-.835,0a1.955,1.955,0,0,0-.251,1.5,1.92,1.92,0,0,1,.167,1.169c-.083.835-.585,1.169-1.42,1a2.312,2.312,0,0,0-.752-.084c-2.339.167-3.675-1.253-4.594-3.174-.334-.752-.585-1.5-.919-2.255s-.752-.919-1.336-.752-.668.585-.251,1a5.077,5.077,0,0,0,.835.585.648.648,0,0,1,.167.835c-.167.418-.5.251-.835.167a1.225,1.225,0,0,0-1.671.334c-.418.5-.835-.334-1.336-.251-.418.084-.5.752-1.086.5-.418-.167-.5-.5-.334-1,.418-.919.251-1.42-.668-1.754-.835-.251-1.336-1-2.088-1.42-.418-.251-.752-.5-1.169,0a.843.843,0,0,0,.585,1.42,3.7,3.7,0,0,1,1.253.418c.25.167.418.334.334.668a.534.534,0,0,1-.585.418,1.059,1.059,0,0,0-.5.084,1.273,1.273,0,0,0-1.086,1.5c0,.585,0,.835-.668.919a2.152,2.152,0,0,0-1.838,1.5,8.506,8.506,0,0,0-.418,4.093c0,.167.167.334.167.418a.806.806,0,0,0,.668-.167c.919-.418,1.253-.418,1.838.334a6.451,6.451,0,0,0,1.587,1.42,1.625,1.625,0,0,1,.835,1c.334,1.336,1.336,1.5,2.506,1.5a3.783,3.783,0,0,0,1.336-.251c1.086-.334,1.169-.251,1.253.919,0,.251-.167.5.083.752.334.418.585.752,1.169.752.418,0,1,0,1.086.585a1.591,1.591,0,0,1-.418,1.587,2.481,2.481,0,0,1-2.339.668,2.789,2.789,0,0,0-2.172.084,1.708,1.708,0,0,1-.919,0c-.251-.084-.585-.418-.835-.084-.334.418-.668.835-.418,1.336a1.58,1.58,0,0,1-.668,2.255c-.083.084-.251.167-.251.251.251.919-.668.919-1,1.169-.5.418-.919.084-.835-.668,0-.251.167-.5-.167-.668-.334-.084-1,.334-.835.668.5,1.086-.418,1.67-.752,2.339-.585,1.169-.5,1.169.167,2.255a11.6,11.6,0,0,0,3.591,3.09,3.531,3.531,0,0,0,2.255.585,4.378,4.378,0,0,1,2.088.251,1.4,1.4,0,0,1,1.086,1.587,7.283,7.283,0,0,0,.251,2.673,2.094,2.094,0,0,1-.835,2.756,1.584,1.584,0,0,0-.919,1.837,2.4,2.4,0,0,1-.083,1.086c-.167.668,0,1.169.752,1.253.334,0,.418.251.585.5a2.005,2.005,0,0,0,1.253.919c.418.084.835.334.668.835-.251.668.167,1.42-.334,2.088-.251.418-.083.835.5.668a3.919,3.919,0,0,1,2.339.585c.835.334.835.585.167,1.169a2.116,2.116,0,0,0-.251,3.424,2.218,2.218,0,0,1,.5,2.339,4.827,4.827,0,0,0,.251,3.591,6.745,6.745,0,0,1,.668,2.84,2.125,2.125,0,0,0,.668,1.837c.418.418.585.835.251,1.336a1.264,1.264,0,0,0,.167,1.587c.418.585.5,1.086-.167,1.587a.932.932,0,0,0-.251,1.086,5.511,5.511,0,0,0,.919,2.172,1.039,1.039,0,0,1,.083,1.42,1.263,1.263,0,0,1-1.587.251c-.585-.251-1.169-.418-1-1.253.083-.334-.167-.585-.334-.835a1.886,1.886,0,0,1-.083-2.339h.334c.167,0,.418,0,.334-.251a.305.305,0,0,0-.418-.167.386.386,0,0,0-.25.418c-.251.084-.585.084-.5.334.167.585-.585,1.086-.167,1.67a3.907,3.907,0,0,1,.752,2.339c0,.334.251.418.334.668.251.334.167.752-.25.835-.418.167-.668-.084-.835-.418-.167-.251.251-.585-.083-.835-.418-.167-.334.084-.418.334,0,.418-.25.585-.585.5a.892.892,0,0,1-.752-.585c-.5-1.336,0-2.589,0-3.842,0-.752.752-.752,1.253-1-.251-.5-.835-.752-.668-1.5a.661.661,0,0,0-.5.752c0,.418-.251.668-.668.585-.5-.167-.418-.5-.167-.835.083-.167.083-.251,0-.334-.668.585-.585,1.169.083,1.5.334.167.585.251.334.668s0,1.086-.5,1.42c-.334.251.167.668.083,1a20.55,20.55,0,0,0-.585,2.422c-.083.418-.334.835-.919.752s-.585-.585-.5-1V289.8c-.585-.251-.668.585-1.253.418-.251-.668-.083-1.67-1.169-1.838,0-.585.083-1.169-.668-1.5-.251.418-1.169.418-.835,1.336.752-.752.752-.752,1.42.167l.084.084a3.134,3.134,0,0,0,.083.835c0,.5.167.084.334,0,.334-.084.5.084.5.418,0,.084-.083.167-.083.251-.668,1.67-.835,1.754-2.172.418a.791.791,0,0,0-.919-.251c-1.086.167-1.5-.334-1.169-1.5.167-.5.334-.919.5-1.42.167-.418.334-.752-.167-1.086-.418-.334-.083-1.086.334-1,.919,0,.835-.668,1.086-1.169a2.185,2.185,0,0,0,.167-1.921c-.919,1.67-2.088,3.09-3.007,4.677a8.323,8.323,0,0,1-6.014,4.009,5.612,5.612,0,0,0-2.339.835,1.338,1.338,0,0,1-1.253.334,3.4,3.4,0,0,0-2.923,1.253,28.958,28.958,0,0,0-2.506,3.09,2.021,2.021,0,0,0-.167,2.255,13.193,13.193,0,0,0,1.67,3.007c.251.334.585.752.334,1.086-.5.752.167,1.169.5,1.42.668.5.418.668,0,1.086-.752.585-1.5,1.169-2.339,1.837a4.851,4.851,0,0,0-1.336,1.587.508.508,0,0,0,0,.668c.418.084.418-.5.752-.585a1.153,1.153,0,0,1,.251.334,1.981,1.981,0,0,1-1.086,2.339c-.585.334-1.169.752-1.754,1.169a6.062,6.062,0,0,0-2.422,3.174,2.521,2.521,0,0,1-1.754,1.67c-2.339.919-4.677,1.67-7.1,2.422l-1.754.5c-.585.167-1.253.251-1.336,1.086,0,.167-.251.251-.418.334-3.926,2.255-7.768,4.677-10.607,8.352-.167.167-.5.251-.334.5.418.919-.334,1.42-.835,1.921-.835.835-1.42,1.921-2.172,2.84-1.754,2-3.007,4.427-5.262,5.93a1.274,1.274,0,0,0-.585,1,2.415,2.415,0,0,1-1.838,1.921c-1.169.5-2.339,1.169-3.424,1.754a23.427,23.427,0,0,0-4.761,3.842,2.226,2.226,0,0,0-.585,1.169,7.6,7.6,0,0,1-2.088,2.84c-1.42,1.5-3.424,2.088-5.095,3.09-1.67,1.086-3.424,2-5.095,3.09a16.071,16.071,0,0,0-3.675,3.842,3.612,3.612,0,0,0-.418,1c-.167.418.083.585.418.668.418.167.585-.084.668-.418a1.839,1.839,0,0,0-.083-.668c0-.167,0-.251.167-.334s.25,0,.334.084a2,2,0,0,1,.334,1.67,14.767,14.767,0,0,1-.668,2.756c-.083.167,0,.334-.083.5a1.818,1.818,0,0,1-1.5,1.921,4.989,4.989,0,0,0-1.921.835,40.436,40.436,0,0,1-5.512,2.339.626.626,0,0,1-.418.084c-1.169-.5-2.422-.167-3.675-.251-.668,0-1.253-.5-1.921-.167-.418.251-.835.334-.752.919,0,.167,0,.418-.083.5-1.253,1-.835,2.673-1.5,3.842a3.3,3.3,0,0,1-.835,1.253c-.334.251-.585.5-.919.752a1.234,1.234,0,0,0-.585,1.336c.083.5,0,.835-.668.835-.668.084-1.169.5-1.838.585-.5.084-.668-.167-.668-.585,0-.167.083-.251.083-.418.167-1.169-.585-1.838-1.754-1.42-.5.167-1,.418-1.5.084a.533.533,0,0,0-.5,0c-1.587.919-3.257,1.67-4.009,3.508a6.836,6.836,0,0,0-.835,2.506c0,.334-.334.5-.5.752a4.261,4.261,0,0,0-1.42,2.923c0,.585-.418,1-.5,1.587a11.78,11.78,0,0,0,.251,3.842c.334,1.5,1.086,2.756,1.42,4.26a8.72,8.72,0,0,1-.25,4.844,5.941,5.941,0,0,0,.752,5.178,3.845,3.845,0,0,1,.752,2.255,11.789,11.789,0,0,0,1.086,5.011,7.7,7.7,0,0,1,.083,4.761,23.558,23.558,0,0,0-1.169,6.849,3.9,3.9,0,0,1-.251,1.42,33.6,33.6,0,0,1-2.506,5.262,37.609,37.609,0,0,1-3.007,4.427c-.083.167-.251.334-.251.5-.25,2-1.086,3.926-1.169,6.014a6.165,6.165,0,0,0,.668,3.424,2.746,2.746,0,0,1,.334,1.42,26.91,26.91,0,0,1,.25,5.178,75.368,75.368,0,0,0,0,8.686v1.086c0,1.67-.083,1.754-1.587,1.169-.083-.083-.25-.167-.334-.083-.919.334-1.587-.167-2.339-.585-.418-.251-.835-.418-1.253.167-.251.5-.835.251-1.253.251-1.671-.084-2.088.251-2.589,1.754-.25.752-.585,1.336,0,2.088.251.418-.334.668-.585.919-1.838,2-3.675,4.009-4.594,6.6-.752,2,.5,3.675,2.673,4.009a7.137,7.137,0,0,0,2.673-.334c.585-.083,1-.251,1,.668,0,.668.835,1,1.42,1.42.251.167,1,.083.752.668-.334.668-.752,0-1.086-.167-1-.418-1.837-1.169-2.923-1.253-2.255-.167-4.51-.585-6.682.418-.5.167-1.086.334-1.587.5-.167.084-.334.084-.418.251-.083.334.083.919-.334.835-.668-.167-1.086.418-1.754.167a2.113,2.113,0,0,0-2.088.251,18.765,18.765,0,0,0-1.754,1,3.927,3.927,0,0,0-1.587,2.088c-.083.251-.083.418-.167.668-.25.752.835.919.668,1.42s-1.086.418-1.086,1.169c0,.334-.083.585-.083.919a4.481,4.481,0,0,1-.668,2.923,3.435,3.435,0,0,1-1.921,1.67,10.214,10.214,0,0,0-2.422,1.42,11.537,11.537,0,0,1-2.422,1.42,2.415,2.415,0,0,0-1.253,1,.973.973,0,0,1-1.42.251,3.509,3.509,0,0,0-1.754-.5,2.058,2.058,0,0,1-1.42-.668,11.7,11.7,0,0,0-2.673-2.339,13.411,13.411,0,0,1-2.506-2.339c-1.086-1.253-2.088-2.506-3.174-3.759a5.136,5.136,0,0,1-1-1.587,1.948,1.948,0,0,0-1.086-1.336,3.256,3.256,0,0,1-1.5-2.255,27.006,27.006,0,0,0-1.838-4.928,12.542,12.542,0,0,1-1.253-4.594c-.167-1.587-.418-3.09-.668-4.594-.083-.585-.334-1.253.5-1.587.334-.167.167-.418.083-.668a6.406,6.406,0,0,0-1.587-2.84.459.459,0,0,1-.251-.418c-.668-2.172-1.921-4.093-2.589-6.264-.251-.752-1.086-1.5-.5-2.422.083-.083,0-.167-.083-.167-1-.167-.752-1-.835-1.587A37.419,37.419,0,0,0,543.007,450a1.506,1.506,0,0,0-1-1,1.368,1.368,0,0,1-.835-1.253c-.083-.5-.251-1-.334-1.587a1.763,1.763,0,0,0-.334-.835,4.633,4.633,0,0,1-1.42-1.921c-.083-.167-.251-.5-.418-.5-1.086-.251-1.336-1.086-1.67-1.921a1.255,1.255,0,0,0-.585-.752c-1.086-.418-1.42-1.5-1.838-2.506-.25-.585-.334-1.169-.585-1.754a25.616,25.616,0,0,0-1.67-4.176,38.9,38.9,0,0,1-1.837-4.677c-1-2.506-1.086-5.178-1.754-7.684-.083-.418-.668-1.086.251-1.42.25-.084,0-.251-.084-.334a2.189,2.189,0,0,1-.418-2.84c.083-.167.251-.334.083-.418-1-.251-.5-1.086-.668-1.67-.251-1.169-.334-2.422-1.336-3.257a3.486,3.486,0,0,1-.835-2.088c-.167-.919-.585-1.837-.752-2.84-.167-.668-.083-1.5-.585-2.088-.251-.334.083-.585.334-.752a.546.546,0,0,0,.167-.668c-.167-.418-.418-.167-.668-.084-.418.167-.668-.084-.752-.5a12.465,12.465,0,0,1-.167-1.754,1.523,1.523,0,0,0-.835-1.42c-.585-.334-.919-.919-1.587-1,.084-.668.752-.334.835-.752a.307.307,0,0,0-.083-.251,23.635,23.635,0,0,1-3.341-3.09c-.334-.418-.585-.752-.167-1.253.167-.167.334-.418.167-.585-.5-.835-.418-1.837-1-2.589a9.049,9.049,0,0,1-1.754-4.343,3.837,3.837,0,0,0-.585-1.336,2.251,2.251,0,0,1-.418-1.253,2.545,2.545,0,0,0-1.086-2.172,4.08,4.08,0,0,1-1.42-3.257,1.241,1.241,0,0,0-.167-.752c-.752-.919-.752-2.172-1.169-3.174-.251-.585-.167-1.253-.585-1.754a.636.636,0,0,1,.084-.752,2.85,2.85,0,0,0,.251-2.172c-.251-1-.334-2-.5-3.007a5.455,5.455,0,0,1,0-2.84,1.948,1.948,0,0,0-.167-1.67c-.418-.5-.334-1.169-.752-1.67-.083-.167-.167-.418,0-.5.668-.334.251-.585,0-.835a1.25,1.25,0,0,1-.083-1.5,1,1,0,0,0,0-1.169c-.251-.251-.334-.5,0-.752l.083-.084c-.585-.835-.251-1.837-.585-2.756-.418-1.086-.585-2.255-1-3.341s-.585-2.172-.919-3.257c-.167-.585-.5-1.086.083-1.587.251-.167,0-.418-.167-.585-1-1-.668-2.088-.334-3.174a.749.749,0,0,0-.083-.919c-.668-.752-.5-1.587-.5-2.506,0-.752,1.086-.919,1-1.086-.251-.668-.251-1.086.251-1.5a1.755,1.755,0,0,0,.585-.919c.167-.5.5-1,0-1.754A6.486,6.486,0,0,0,506.842,330.979Zm180.409-8.853c-.418,0-.585.251-.835.5-.919.084-1.086-.752-1.587-1.169.167-.251.418-.418.585-.334,1.253.585,2-.418,2.923-.835a1.006,1.006,0,0,0,.5-1.42c-.334-.5-.835-.585-1.5-.167a11.03,11.03,0,0,0-3.09,2.506,3.73,3.73,0,0,0-1.169,3.341c1.086,0,1.086-1,1.336-1.587.418-.919.5-.919,1.086-.167.418.585.668.334,1-.084.334-.167.585-.251.752-.585.251-.084.585-.084.585-.418A.534.534,0,0,0,687.25,322.126ZM728.26,287.3c.585-.167.835,0,.919.585a8.823,8.823,0,0,0,.167,2c.418-1.253.083-2.506.5-3.591h.25c.251,0,.418-.084.418-.334a.335.335,0,0,0-.5-.167.71.71,0,0,0-.418.251,2.41,2.41,0,0,1-1.587,1.086c-.251.084-.418.167-.418.418a.221.221,0,0,0,.25.251C728.093,287.714,728.177,287.464,728.26,287.3Zm-176.4,186c-.083-.167-.167-.5-.334-.5-.251.084-.083.334-.083.585,0,.083.083.167.167.251.083.334.251.668.334,1,.418,1,.167,2.088,1,2.923a.643.643,0,0,1-.083.835.941.941,0,0,0-.167,1.336,1.591,1.591,0,0,0,1.587.418.377.377,0,0,0,.251-.251c.083-.167,0-.418-.167-.418-.752-.084-.752-.585-.835-1.169a7.218,7.218,0,0,0-.585-1.754.755.755,0,0,1,0-.835,1.256,1.256,0,0,0-.5-1.921C552.195,473.719,552.028,473.468,551.861,473.3ZM452.3,252.885c-.752.167-1.169.835-1.754.835a1.347,1.347,0,0,0-1.086.5c-.334.334-.668.835-1.253.835-1.169-.167-1.336.752-1.754,1.5a.427.427,0,0,0,.668,0c.668-.668,1.67-.752,2.255-1.587a2.841,2.841,0,0,1,1.67-1A1.7,1.7,0,0,0,452.3,252.885Zm86.279-105.906c-.418-.084-.5.167-.585.418s.083.418.334.418a.534.534,0,0,0,.585-.418C538.915,147.229,538.831,146.979,538.581,146.979ZM724.5,285.877l-.25.251c-.083.167.083.251.167.251a.221.221,0,0,0,.251-.251C724.669,286.044,724.669,285.877,724.5,285.877Zm47.942-38.5c-.083-.084-.167-.167-.167-.251-.083.084-.167.084-.167.167,0,.167,0,.334.251.334C772.36,247.54,772.443,247.456,772.443,247.373Zm-83.857,74.084h0Zm42.1-36.082h0c-.083,0-.167,0-.167.084.083.084.083.084.167.084Z" transform="translate(-443.187 -54.619)"/></svg>