<svg xmlns="http://www.w3.org/2000/svg" width="40" height="40" viewBox="0 0 40 40"><defs><style>.a{fill:#fff;}</style></defs><g transform="translate(0 0)"><ellipse class="a" cx="1.351" cy="1.351" rx="1.351" ry="1.351" transform="translate(12.908 12.112)"/><ellipse class="a" cx="1.351" cy="1.351" rx="1.351" ry="1.351" transform="translate(18.847 12.112)"/><ellipse class="a" cx="1.351" cy="1.351" rx="1.351" ry="1.351" transform="translate(24.786 12.112)"/><ellipse class="a" cx="1.351" cy="1.351" rx="1.351" ry="1.351" transform="translate(12.908 18.547)"/><ellipse class="a" cx="1.351" cy="1.351" rx="1.351" ry="1.351" transform="translate(18.847 18.547)"/><ellipse class="a" cx="1.351" cy="1.351" rx="1.351" ry="1.351" transform="translate(24.786 18.547)"/><ellipse class="a" cx="1.351" cy="1.351" rx="1.351" ry="1.351" transform="translate(12.908 24.983)"/><ellipse class="a" cx="1.351" cy="1.351" rx="1.351" ry="1.351" transform="translate(18.847 24.983)"/><ellipse class="a" cx="1.351" cy="1.351" rx="1.351" ry="1.351" transform="translate(24.786 24.983)"/><path class="a" d="M37.069,29.818A3.934,3.934,0,0,0,38.5,26.8a3.877,3.877,0,0,0-1.584-3.1,3.823,3.823,0,0,0,0-6.2A3.877,3.877,0,0,0,38.5,14.4a3.934,3.934,0,0,0-1.426-3.019A6.41,6.41,0,0,0,40,6.38a5.752,5.752,0,0,0-9.663-4.211.276.276,0,0,1-.158.079A6.362,6.362,0,0,0,28.99,3.917a3.76,3.76,0,0,0-2.851-1.192A3.858,3.858,0,0,0,23.05,4.314a3.825,3.825,0,0,0-3.01-1.589,3.6,3.6,0,0,0-3.01,1.589,3.858,3.858,0,0,0-3.089-1.589,3.76,3.76,0,0,0-2.851,1.192A9.215,9.215,0,0,0,9.822,2.248a.276.276,0,0,1-.158-.079A5.752,5.752,0,0,0,0,6.38a6.41,6.41,0,0,0,2.931,5.006A3.934,3.934,0,0,0,1.5,14.4a3.877,3.877,0,0,0,1.584,3.1,3.823,3.823,0,0,0,0,6.2A3.877,3.877,0,0,0,1.5,26.8a3.934,3.934,0,0,0,1.426,3.019A5.565,5.565,0,0,0,0,34.824a6.032,6.032,0,0,0,.079,1.192A5.761,5.761,0,0,0,5.7,40.624,5.469,5.469,0,0,0,8.4,39.909a6.4,6.4,0,0,0,2.3-2.3,3.912,3.912,0,0,0,3.01,1.43,3.858,3.858,0,0,0,3.089-1.589,3.858,3.858,0,0,0,3.089,1.589H20.2a3.858,3.858,0,0,0,3.089-1.589,3.858,3.858,0,0,0,3.089,1.589,3.912,3.912,0,0,0,3.01-1.43,6.4,6.4,0,0,0,2.3,2.3,5.469,5.469,0,0,0,2.693.715A5.761,5.761,0,0,0,40,36.016V34.824A5.565,5.565,0,0,0,37.069,29.818Zm1.267,5.88a4.223,4.223,0,0,1-4.04,3.337,3.753,3.753,0,0,1-1.98-.556A4.19,4.19,0,0,1,30.1,34.824a.8.8,0,0,0-.792-.795.718.718,0,0,0-.554.238.9.9,0,0,0-.238.636v.238a2.3,2.3,0,1,1-4.594,0V34.9a.9.9,0,0,0-.238-.636.859.859,0,0,0-1.188,0,.9.9,0,0,0-.238.636v.238a2.287,2.287,0,0,1-2.218,2.3,2.236,2.236,0,0,1-2.218-2.3V34.9a.9.9,0,0,0-.238-.636.859.859,0,0,0-1.188,0,.9.9,0,0,0-.238.636v.238a2.3,2.3,0,1,1-4.594,0V34.9a.9.9,0,0,0-.238-.636,1.051,1.051,0,0,0-.634-.238.8.8,0,0,0-.792.795,4.19,4.19,0,0,1-2.218,3.655,3.753,3.753,0,0,1-1.98.556A4.223,4.223,0,0,1,1.663,35.7a3.269,3.269,0,0,1-.079-.874A4.172,4.172,0,0,1,4.119,31.01,3.537,3.537,0,0,1,5.7,30.692.749.749,0,0,0,6.5,29.9a.722.722,0,0,0-.238-.556.9.9,0,0,0-.634-.238H5.386a2.3,2.3,0,0,1,0-4.608h.238a1.011,1.011,0,0,0,.871-.953c0-.636-.792-.874-1.03-.874H5.228a2.3,2.3,0,0,1,0-4.608h.238a.84.84,0,0,0,.871-.795.92.92,0,0,0-.871-.874H5.228a2.3,2.3,0,0,1,0-4.608h.238a.9.9,0,0,0,.634-.238.619.619,0,0,0,.238-.556.8.8,0,0,0-.792-.795,4.2,4.2,0,0,1-4.2-4.052A4.25,4.25,0,0,1,3.485,2.566,4.032,4.032,0,0,1,8.4,3.122l.079.079a4.087,4.087,0,0,1,1.188,2.94.853.853,0,0,0,.792.795.862.862,0,0,0,.871-.715,2.315,2.315,0,0,1,2.3-2.066,2.26,2.26,0,0,1,2.3,2.066.843.843,0,0,0,.792.715.929.929,0,0,0,.871-.715,2.315,2.315,0,0,1,2.3-2.066h.158a2.315,2.315,0,0,1,2.3,2.066.929.929,0,0,0,.871.715A.843.843,0,0,0,24,6.221a2.26,2.26,0,0,1,2.3-2.066,2.315,2.315,0,0,1,2.3,2.066.862.862,0,0,0,.871.715.853.853,0,0,0,.792-.795A4.087,4.087,0,0,1,31.446,3.2l.079-.079a4.032,4.032,0,0,1,4.911-.556,4.25,4.25,0,0,1,2.139,3.575,4.2,4.2,0,0,1-4.2,4.052.8.8,0,0,0-.792.795.619.619,0,0,0,.238.556.9.9,0,0,0,.634.238h.238a2.3,2.3,0,0,1,0,4.608h-.238a.92.92,0,0,0-.871.874.84.84,0,0,0,.871.795h.238a2.3,2.3,0,0,1,0,4.608h-.238c-.238,0-1.03.238-1.03.874a1.011,1.011,0,0,0,.871.953h.238a2.3,2.3,0,0,1,0,4.608H34.3a.9.9,0,0,0-.634.238.722.722,0,0,0-.238.556.749.749,0,0,0,.792.795,3.537,3.537,0,0,1,1.584.318,4.123,4.123,0,0,1,2.614,3.814A3.269,3.269,0,0,1,38.337,35.7Z" transform="translate(0 -0.624)"/></g></svg>